<?xml version="1.0" encoding="UTF-8"?>
<svg width="333px" height="292px" viewBox="0 0 333 292" version="1.1" xmlns="http://www.w3.org/2000/svg" xmlns:xlink="http://www.w3.org/1999/xlink">
    <!-- Generator: Sketch 61 (89581) - https://sketch.com -->
    <title>pulutus logo shape 1</title>
    <desc>Created with Sketch.</desc>
    <defs>
        <linearGradient x1="71.6%" y1="14.9140284%" x2="27.6%" y2="86.3442272%" id="linearGradient-1">
            <stop stop-color="#FFD401" offset="0%"></stop>
            <stop stop-color="#F97412" offset="100%"></stop>
        </linearGradient>
        <linearGradient x1="10.8%" y1="105.147337%" x2="88.3%" y2="-3.81955158%" id="linearGradient-2">
            <stop stop-color="#6658D1" offset="0%"></stop>
            <stop stop-color="#1FF368" offset="100%"></stop>
        </linearGradient>
        <linearGradient x1="10.8%" y1="79.3051349%" x2="88.3%" y2="21.4004462%" id="linearGradient-3">
            <stop stop-color="#141B43" offset="0%"></stop>
            <stop stop-color="#1A2770" offset="100%"></stop>
        </linearGradient>
    </defs>
    <g id="Page-1" stroke="none" stroke-width="1" fill="none" fill-rule="evenodd">
        <g id="Artboard" transform="translate(-1270.000000, -976.000000)">
            <g id="pulutus-logo-shape-1" transform="translate(1270.000000, 976.000000)">
                <g id="Group-2-Copy">
                    <path d="M267.805249,15.2633248 L328.981918,121.169844 C332.927456,128.003718 334.009143,136.117018 331.984782,143.727358 C329.960421,151.337698 324.996466,157.819249 318.18742,161.750453 L309.890067,166.537269 C308.28976,160.542612 306.807672,154.990795 305.443803,149.881817 L309.920097,147.298842 C316.137901,143.708992 318.268278,135.758316 314.678428,129.540512 L314.678428,129.540512 L253.397726,23.3992232 C249.807875,17.1814191 241.8572,15.0510421 235.639396,18.6408929 L235.639396,18.6408929 L156.388878,64.3968791 C139.299377,68.9929925 118.535835,74.5772152 94.0982518,81.1495473 L227.245911,4.31627128 C241.426881,-3.86680882 259.585915,1.03435396 267.805249,15.2633248 Z" id="Combined-Shape" fill="url(#linearGradient-1)"></path>
                    <path d="M60.1649694,280.431322 L100.862558,280.439103 L84.7534814,284.752236 C75.9901445,287.098225 67.0867885,285.247908 60.1649694,280.431322 Z M277.904451,233.043576 C277.903058,226.801747 277.901776,221.056496 277.900605,215.807823 L279.348948,215.422644 C286.284007,213.564401 290.39958,206.43602 288.541336,199.500961 L288.541336,199.500961 L256.820111,81.115736 C254.961867,74.1806767 247.833487,70.0651043 240.898427,71.9233479 L240.898427,71.9233479 L141.211584,98.6365497 C123.037373,98.6324092 101.622976,98.6275303 76.9683957,98.6219131 L236.498429,55.9144322 C252.314131,51.6804889 268.585897,61.1145525 272.842435,76.986003 L304.523935,195.117533 C306.566296,202.739728 305.511249,210.856535 301.586165,217.683616 C297.661082,224.510697 291.188721,229.486628 283.594216,231.521569 Z" id="Combined-Shape" fill="url(#linearGradient-2)"></path>
                    <path d="M29.6386147,110.140352 L235.481126,110.187245 C251.853747,110.190975 265.12935,123.515024 265.133016,139.947341 L265.160306,262.253412 C265.160306,270.144488 262.040424,277.711656 256.482106,283.290223 C250.923788,288.868791 243.384102,292.000001 235.521692,292.000001 L29.6791807,291.953107 C13.3065602,291.949378 0.0309567576,278.625329 0.0272903874,262.193012 L7.59258228e-07,139.886941 C-0.00366485141,123.454624 13.2659943,110.136623 29.6386147,110.140352 Z M29.5725191,126.789474 L235.587786,126.789474 C242.767488,126.789474 248.587786,132.609772 248.587786,139.789474 L248.587786,262.350877 C248.587786,269.530579 242.767488,275.350877 235.587786,275.350877 L29.5725191,275.350877 C22.3928173,275.350877 16.5725191,269.530579 16.5725191,262.350877 L16.5725191,139.789474 C16.5725191,132.609772 22.3928173,126.789474 29.5725191,126.789474 Z" id="Combined-Shape-Copy-2" fill="url(#linearGradient-3)"></path>
                    <path d="M76.4843179,210.56452 C76.5046631,220.776021 68.7263636,229.313685 58.5578071,230.241123 C57.5281375,230.331111 56.7359654,231.189768 56.729002,232.223415 L56.729002,256.140351 C45.8161114,256.140351 36.9694656,247.293043 36.9694656,236.379335 L36.9694656,192.785795 C36.9810326,191.699256 37.8650895,190.824561 38.9516091,190.824561 L56.729002,190.824561 C61.9693308,190.813386 66.9985662,192.888842 70.7060259,196.59262 C74.4134855,200.296398 76.4941585,205.323789 76.4885496,210.56452 L76.4843179,210.56452 Z" id="Path_10" fill="#17225F"></path>
                </g>
            </g>
        </g>
    </g>
</svg>