<?xml version="1.0" encoding="UTF-8"?>
<svg width="811px" height="180px" viewBox="0 0 811 180" version="1.1" xmlns="http://www.w3.org/2000/svg" xmlns:xlink="http://www.w3.org/1999/xlink">
    <!-- Generator: Sketch 61 (89581) - https://sketch.com -->
    <title>pulutus logo 2</title>
    <desc>Created with Sketch.</desc>
    <defs>
        <linearGradient x1="71.6%" y1="14.8999731%" x2="27.6%" y2="86.3587865%" id="linearGradient-1">
            <stop stop-color="#FFD401" offset="0%"></stop>
            <stop stop-color="#F97412" offset="100%"></stop>
        </linearGradient>
        <linearGradient x1="10.8%" y1="105.288818%" x2="88.3%" y2="-3.95762619%" id="linearGradient-2">
            <stop stop-color="#6658D1" offset="0%"></stop>
            <stop stop-color="#1FF368" offset="100%"></stop>
        </linearGradient>
        <linearGradient x1="10.8%" y1="79.3835171%" x2="88.3%" y2="21.3239512%" id="linearGradient-3">
            <stop stop-color="#141B43" offset="0%"></stop>
            <stop stop-color="#1A2770" offset="100%"></stop>
        </linearGradient>
    </defs>
    <g id="Page-1" stroke="none" stroke-width="1" fill="none" fill-rule="evenodd">
        <g id="Artboard" transform="translate(-178.000000, -678.000000)">
            <g id="pulutus-logo-2" transform="translate(178.000000, 678.000000)">
                <g id="pulutus-logo-name" transform="translate(0.000000, 52.000000)">
                    <path d="M553.964908,25.8817824 L556.977848,25.8871166 C558.626664,25.8900195 559.964105,27.2230114 559.972516,28.8718088 C560.063131,46.6357776 560.052551,57.1627477 559.940774,60.4527191 C559.629782,69.6062519 557.919524,76.8333819 550.845714,81.1235907 C547.618892,83.0803542 540.709696,84.0708616 530.118127,84.0951127 L486.872636,84.0951127 C486.467602,85.8253838 486.115309,87.1895102 485.815757,88.1874919 C479.459677,108.966547 467.508287,112.970258 440.602285,112.969122 L426.197263,113.001583 C423.98813,113.006549 422.193239,111.219727 422.188252,109.010593 L422.188252,107.215977 C422.188252,105.559123 423.531398,104.215977 425.188252,104.215977 L442.019985,104.215032 C457.670125,104.184729 467.542536,103.367192 474.08531,93.3029659 C475.491147,91.1404785 476.630026,88.0711941 477.501945,84.0951127 L434.960679,84.0951127 C431.656768,84.0951127 428.974552,81.4240934 428.960732,78.1202111 L428.769944,32.5111335 C428.76256,30.7465218 429.912387,29.1855503 431.599828,28.6693614 C432.979629,28.2472799 434.427353,27.8735931 435.943001,27.5483008 C439.833959,26.7132132 448.414143,25.8923859 453.699386,25.8923859 C483.188365,25.79235 487.754128,42.0982076 487.75185,70.9085574 C487.75185,71.7740198 487.731351,72.9865766 487.690351,74.5462278 C524.268847,75.4495826 543.916018,74.9137841 546.631864,72.9388322 C551.575735,69.3443591 550.959601,64.2379793 550.959601,55.8872521 L550.959601,28.8817824 C550.959601,27.2249282 552.302747,25.8817824 553.959601,25.8817824 L553.964908,25.8817824 Z M407.964908,-2.06057393e-13 L410.970599,0.005321383 C412.622091,0.00822946803 413.960645,1.34538495 413.965294,2.99687242 C414.06361,37.9258462 414.055437,57.0777951 413.940774,60.4527191 C413.629782,69.6062519 411.919524,76.8333819 404.845714,81.1235907 C401.618892,83.0803542 394.709696,84.0708616 384.118127,84.0951127 L360.872636,84.0951127 C360.467602,85.8253838 360.115309,87.1895102 359.815757,88.1874919 C353.459677,108.966547 341.508287,112.970258 314.602285,112.969122 L300.197263,113.001583 C297.98813,113.006549 296.193239,111.219727 296.188252,109.010593 L296.188252,107.215977 C296.188252,105.559123 297.531398,104.215977 299.188252,104.215977 L316.019985,104.215032 C331.670125,104.184729 341.542536,103.367192 348.08531,93.3029659 C349.491147,91.1404785 350.630026,88.0711941 351.501945,84.0951127 L308.960679,84.0951127 C305.656768,84.0951127 302.974552,81.4240934 302.960732,78.1202111 L302.769944,32.5111335 C302.76256,30.7465218 303.912387,29.1855503 305.599828,28.6693614 C306.979629,28.2472799 308.427353,27.8735931 309.943001,27.5483008 C313.833959,26.7132132 322.414143,25.8923859 327.699386,25.8923859 C357.188365,25.79235 361.754128,42.0982076 361.75185,70.9085574 C361.75185,71.7740198 361.731351,72.9865766 361.690351,74.5462278 C384.935514,75.4495826 397.916018,74.9137841 400.631864,72.9388322 C405.575735,69.3443591 404.959601,64.2379793 404.959601,55.8872521 L404.959601,3 C404.959601,1.34314575 406.302747,-2.06057393e-13 407.959601,-2.06057393e-13 L407.964908,-2.06057393e-13 Z M281.776656,25.8817824 L284.789596,25.8871166 C286.438412,25.8900195 287.775853,27.2230114 287.784264,28.8718088 C287.874879,46.6357776 287.864298,57.1627477 287.752521,60.4527191 C287.441529,69.6062519 285.731272,76.8333819 278.657461,81.1235907 C275.430639,83.0803542 268.521444,84.0708616 257.929874,84.0951127 L234.684384,84.0951127 C234.27935,85.8253838 233.927056,87.1895102 233.627505,88.1874919 C227.271425,108.966547 215.320035,112.970258 188.414033,112.969122 L174.009011,113.001583 C171.799877,113.006549 170.004987,111.219727 170,109.010593 L170,107.215977 C170,105.559123 171.343146,104.215977 173,104.215977 L189.831733,104.215032 C205.481873,104.184729 215.354283,103.367192 221.897057,93.3029659 C223.302895,91.1404785 224.441773,88.0711941 225.313693,84.0951127 L182.772427,84.0951127 C179.468516,84.0951127 176.7863,81.4240934 176.772479,78.1202111 L176.581692,32.5111335 C176.574308,30.7465218 177.724135,29.1855503 179.411576,28.6693614 C180.791376,28.2472799 182.239101,27.8735931 183.754749,27.5483008 C187.645707,26.7132132 196.225891,25.8923859 201.511134,25.8923859 C231.000112,25.79235 235.565876,42.0982076 235.563598,70.9085574 C235.563598,71.7740198 235.543098,72.9865766 235.502099,74.5462278 C258.747262,75.4495826 271.727766,74.9137841 274.443611,72.9388322 C279.300748,69.40742 278.791257,64.4166851 278.771885,56.3237777 L278.771349,28.8817824 C278.771349,27.2249282 280.114495,25.8817824 281.771349,25.8817824 L281.776656,25.8817824 Z M158.407939,25.511978 C160.064793,25.511978 161.407939,26.8551237 161.407939,28.511978 L161.407939,29.7180344 C161.542165,46.3181064 161.591907,56.1521815 161.557162,59.2202595 C161.441165,69.4633725 160.067817,77.5472686 152.410799,82.1907115 C147.570566,85.1258569 145.427586,84.69161 137.683212,84.69161 L127.237987,84.6913355 C125.517278,84.6862208 123.238059,84.6168356 121.619333,83.7821924 C119.496463,82.6874809 118.325696,80.5992307 118.202698,80.5992307 C118.094504,80.5992307 116.939681,82.7238576 114.786062,83.7821924 C112.857635,84.7298667 109.406631,84.6958981 108.051579,84.6918832 L106.854098,84.6911078 C101.736415,84.6851634 98.2409761,84.6277164 96.3677807,84.5187666 C89.8823031,84.1415549 84.3820775,82.9411787 81.1448898,79.1214271 C80.9148364,78.8895256 80.6528944,78.8008574 80.581145,79.1214271 C80.3579249,80.6935828 80.0071503,82.5942656 79.6700423,84.123224 C78.8511888,87.8416052 77.9093363,91.8043924 76.2534071,94.8088808 C70.2014073,105.794646 60.5573851,110.610012 43.3398215,110.610012 L37.0957486,110.610012 C20.0694913,110.610012 10.4494094,105.901059 4.38523212,95.1727895 L4.18216295,94.8088808 C2.52623376,91.8043924 1.58438133,87.8416052 0.765527761,84.123224 C0.428419756,82.5942656 -0.153793015,70.4270457 0.0377938621,62.3157832 C0.0637044826,61.2187987 0.0660100248,59.1063925 0.0447104887,55.9785647 L0.0447603069,55.9313736 C0.0595408042,54.2745829 1.41461706,52.9434705 3.07140779,52.9582555 L5.88284911,52.9833368 L5.90368532,52.983595 C7.56033282,53.009883 8.88200032,54.3741718 8.85570904,56.0308193 C8.85294593,56.2049479 8.85156438,56.3497593 8.85156438,56.4652536 L8.85101518,63.6706595 C8.84096015,66.6065457 8.7095842,79.4290755 9.87655493,84.69161 C12.4094205,96.1127583 19.8087134,99.9152607 31.856908,101.970544 C35.8640143,102.320918 38.6507116,102.496104 40.217,102.496104 C42.1179637,102.496104 44.9051844,102.320918 48.5786621,101.970544 C60.6268567,99.9152607 68.0261496,96.1127583 70.5590151,84.69161 C71.7179378,79.4653689 71.5974098,73.1715733 71.5849057,66.8401044 L71.5840057,52.1799305 C71.5840057,52.0644362 71.5826242,51.9196248 71.579861,51.7454962 C71.5535698,50.0888488 72.8752373,48.72456 74.5318848,48.698272 L74.552721,48.6980137 L77.3751595,48.6728343 C79.0319556,48.6580394 80.3870363,49.9891561 80.4018169,51.6459524 L80.4015191,52.6756777 C80.4058549,58.0526365 80.5192458,61.5621437 80.741692,63.2041991 C81.3473699,67.6751979 82.8949049,70.0583569 86.8449762,72.7555039 C89.1562091,74.3334874 92.0379995,75.1033326 95.2998854,75.4774961 C97.6354355,75.7454018 101.625295,75.8611658 107.269465,75.8247883 C114.855583,75.8247883 114.015382,69.4289637 113.989434,69.8158971 L113.988,69.835 L113.988847,56.2814626 C113.988847,54.6246084 115.331993,53.2814626 116.988847,53.2814626 L119.555199,53.2814626 C121.202442,53.281474 122.541571,54.6096601 122.555087,56.2568481 C122.614578,63.5073082 122.644323,67.7067719 122.644323,68.8552391 C122.639768,71.159476 121.769665,75.8247883 129.363706,75.8247883 C137.069357,75.8247883 143.723435,77.2593946 148.196949,74.0059531 C153.14082,70.41148 152.524687,65.3051001 152.524687,56.954373 L152.524687,28.511978 C152.524687,26.8551237 153.867833,25.511978 155.524687,25.511978 L158.407939,25.511978 Z M438.395297,35.6652057 C437.89845,35.7313796 437.527313,36.1551732 437.527313,36.6564075 L437.527313,74.5462278 L478.868599,74.5462278 C478.868599,63.7382838 478.39768,56.3689128 477.455842,52.4381147 C474.732425,41.071824 469.572734,34.4089432 454.610489,34.5318532 C451.308702,34.2874036 445.903638,34.6651878 438.395297,35.6652057 Z M312.395297,35.6652057 C311.89845,35.7313796 311.527313,36.1551732 311.527313,36.6564075 L311.527313,74.5462278 L352.868599,74.5462278 C352.868599,63.7382838 352.39768,56.3689128 351.455842,52.4381147 C348.732425,41.071824 343.572734,34.4089432 328.610489,34.5318532 C325.308702,34.2874036 319.903638,34.6651878 312.395297,35.6652057 Z M186.207045,35.6652057 C185.710198,35.7313796 185.339061,36.1551732 185.339061,36.6564075 L185.339061,74.5462278 L226.680347,74.5462278 C226.680347,63.7382838 226.209428,56.3689128 225.26759,52.4381147 C222.544172,41.071824 217.384482,34.4089432 202.422237,34.5318532 C199.12045,34.2874036 193.715386,34.6651878 186.207045,35.6652057 Z M252,0.010603492 C253.104569,0.010603492 254,0.906033992 254,2.01060349 L254,16.0106035 C254,17.115173 253.104569,18.0106035 252,18.0106035 L238,18.0106035 C236.895431,18.0106035 236,17.115173 236,16.0106035 L236,2.01060349 C236,0.906033992 236.895431,0.010603492 238,0.010603492 L252,0.010603492 Z M277,0.010603492 C278.104569,0.010603492 279,0.906033992 279,2.01060349 L279,16.0106035 C279,17.115173 278.104569,18.0106035 277,18.0106035 L263,18.0106035 C261.895431,18.0106035 261,17.115173 261,16.0106035 L261,2.01060349 C261,0.906033992 261.895431,0.010603492 263,0.010603492 L277,0.010603492 Z" id="Combined-Shape" fill="#141B43"></path>
                    <rect id="Rectangle" fill="#FB9A0B" x="492" y="94.0106035" width="18" height="18" rx="2"></rect>
                    <rect id="Rectangle-Copy" fill="#3DB194" x="517" y="94.0106035" width="18" height="18" rx="2"></rect>
                    <rect id="Rectangle-Copy-2" fill="#141B43" x="542" y="94.0106035" width="18" height="18" rx="2"></rect>
                </g>
                <g id="pulutus-logo-shape-1" transform="translate(606.000000, 0.000000)">
                    <g id="Group-2-Copy">
                        <path d="M164.839949,9.46342713 L202.551575,74.7482793 C204.983756,78.9609407 205.652772,83.9610067 204.408839,88.6500258 C203.164906,93.3390449 200.110306,97.3314196 195.91855,99.7515307 L190.78707,102.71213 L188.01487,92.3137458 L188.01487,92.3137458 C192.953301,88.4547315 194.480469,81.5033927 191.415639,75.8732141 L191.253012,75.5831988 L158.463539,18.7901644 C154.928079,12.6665695 147.162941,10.5074785 140.989008,13.872593 L140.705208,14.0318342 L96.2358226,39.7073757 L57.7871911,50.0617121 L57.7871911,50.0617121 L139.858745,2.70304558 C148.588773,-2.33458366 159.773239,0.692142257 164.839949,9.46342713 Z" id="Path" fill="url(#linearGradient-1)"></path>
                        <path d="M37.0946734,172.869042 L62.0399584,172.873304 L52.1949193,175.510288 C46.9544474,176.913187 41.6318184,175.875437 37.4244918,173.092371 L37.0946734,172.869042 Z M167.953048,47.4853511 L187.482718,120.306163 C188.741708,125.004776 188.093816,130.007623 185.678661,134.214914 C183.263506,138.422205 179.279686,141.487954 174.604391,142.740696 L171.08232,143.661276 L171.079248,132.32549 C175.458523,129.36502 177.737807,123.902091 176.433896,118.505689 L176.353052,118.18835 L159.379971,54.843951 C157.549055,48.0108778 150.601866,43.9149753 143.764354,45.5734472 L143.458288,45.6515629 L86.9123668,60.8033481 L47.3168318,60.7943149 L47.3168318,60.7943149 L145.572773,34.4897125 C155.309167,31.8832339 165.329158,37.7015794 167.953048,47.4853511 Z" id="Shape" fill="url(#linearGradient-2)"></path>
                        <path d="M18.2459941,67.8947368 L144.965858,67.9236443 C155.045099,67.9259435 163.217768,76.1393981 163.220025,86.2689085 L163.236825,161.663062 C163.236825,166.527424 161.316177,171.192117 157.89439,174.63096 C154.472602,178.069803 149.831054,180 144.990832,180 L18.2709671,179.971094 C8.19172628,179.968794 0.0190574634,171.75534 0.0168003886,161.625829 L-2.56537487e-13,86.2316759 C-0.00225613976,76.1021654 8.16675323,67.8924386 18.2459941,67.8947368 Z M18.2053045,78.1578947 L145.03152,78.1578947 C149.451457,78.1578947 153.034523,81.7457498 153.034523,86.1715934 L153.034523,161.723143 C153.034523,166.148987 149.451457,169.736842 145.03152,169.736842 L18.2053045,169.736842 C13.785368,169.736842 10.2023015,166.148987 10.2023015,161.723143 L10.2023015,86.1715934 C10.2023015,81.7457498 13.785368,78.1578947 18.2053045,78.1578947 Z" id="Shape" fill="url(#linearGradient-3)"></path>
                        <path d="M47.0849405,129.800046 C47.0974653,136.094808 42.3090226,141.357751 36.0491005,141.92946 C35.4152198,141.984931 34.9275463,142.51424 34.9232595,143.15142 L34.9232595,157.894737 C28.2051136,157.894737 22.7589804,152.440917 22.7589804,145.713288 L22.7589804,118.840559 C22.7661011,118.170774 23.3103404,117.631579 23.9792188,117.631579 L34.9232595,117.631579 C38.1492877,117.62469 41.2453636,118.904081 43.5277336,121.187232 C45.8101037,123.470382 47.0909985,126.569459 47.0875456,129.800046 L47.0849405,129.800046 Z" id="Path_10" fill="#17225F"></path>
                    </g>
                </g>
            </g>
        </g>
    </g>
</svg>